<svg xmlns="http://www.w3.org/2000/svg" version="1.1" xmlns:xlink="http://www.w3.org/1999/xlink" xmlns:svgjs="http://svgjs.dev/svgjs" width="1000" height="1000" viewBox="0 0 1000 1000"><rect width="1000" height="1000" fill="#ffffff"></rect><g transform="matrix(0.7,0,0,0.7,149.57575757575756,282.1265587044535)"><svg viewBox="0 0 396 247" data-background-color="#f7eae6" preserveAspectRatio="xMidYMid meet" height="623" width="1000" xmlns="http://www.w3.org/2000/svg" xmlns:xlink="http://www.w3.org/1999/xlink"><g id="tight-bounds" transform="matrix(1,0,0,1,0.2400000000000091,-0.09999999999999432)"><svg viewBox="0 0 395.52 247.2" height="247.2" width="395.52"><g><svg></svg></g><g><svg viewBox="0 0 395.52 247.2" height="247.2" width="395.52"><mask id="04fe1049-e69b-4cba-930a-8e1abea779ce"><rect width="395.52" height="247.2" fill="white"></rect><g transform="matrix(1,0,0,1,0,82.68051063829786)" id="clone"><svg viewBox="0 0 395.52 81.83897872340427" height="81.83897872340427" width="395.52"><g><svg viewBox="0 0 395.52 81.83897872340427" height="81.83897872340427" width="395.52"><g><svg viewBox="0 0 395.52 81.83897872340427" height="81.83897872340427" width="395.52"><g><svg viewBox="0 0 395.52 81.83897872340427" height="81.83897872340427" width="395.52"><g id="SvgjsG1002"><svg viewBox="0 0 395.52 81.83897872340427" height="81.83897872340427" width="395.52" id="SvgjsSvg1001"><g><svg viewBox="0 0 395.52 81.83897872340427" height="81.83897872340427" width="395.52"><g transform="matrix(1,0,0,1,0,0)"><svg width="395.52" viewBox="-1.85 -36.05 188.98999999999998 39.9" height="81.83897872340427" data-palette-color="#484a47"><path d="M13.4 0L1.15 0 1.15-1.05 2.15-1.4Q3.75-1.9 3.75-3.9L3.75-3.9Q3.8-6.75 3.8-9.73 3.8-12.7 3.8-15.8L3.8-15.8 3.8-17.55Q3.8-20.45 3.8-23.35 3.8-26.25 3.75-29.15L3.75-29.15Q3.75-31.2 2.2-31.7L2.2-31.7 1.15-32 1.15-33.05 14.3-33.05Q19.55-33.05 23.35-31.1 27.15-29.15 29.2-25.48 31.25-21.8 31.25-16.6L31.25-16.6Q31.25-11.3 29.03-7.6 26.8-3.9 22.78-1.95 18.75 0 13.4 0L13.4 0ZM11-1.45L11-1.45 13.55-1.45Q17.1-1.45 19.33-2.85 21.55-4.25 22.6-7.58 23.65-10.9 23.65-16.55L23.65-16.55Q23.65-22.2 22.6-25.5 21.55-28.8 19.38-30.2 17.2-31.6 13.75-31.6L13.75-31.6 11-31.6Q10.95-28.15 10.95-24.63 10.95-21.1 10.95-17.55L10.95-17.55 10.95-15.85Q10.95-12.1 10.95-8.53 10.95-4.95 11-1.45ZM45.85-24.75L45.85-24.75Q49-24.75 51.25-23.45 53.5-22.15 54.72-19.88 55.95-17.6 55.95-14.65L55.95-14.65Q55.95-14 55.9-13.43 55.85-12.85 55.7-12.35L55.7-12.35 40.65-12.35Q40.7-7.2 42.57-4.95 44.45-2.7 48.05-2.7L48.05-2.7Q50.55-2.7 52.1-3.53 53.65-4.35 54.95-5.85L54.95-5.85 55.75-5.1Q54.25-2.35 51.67-0.83 49.1 0.7 45.55 0.7L45.55 0.7Q42 0.7 39.3-0.8 36.6-2.3 35.07-5.13 33.55-7.95 33.55-11.9L33.55-11.9Q33.55-16 35.32-18.85 37.1-21.7 39.92-23.23 42.75-24.75 45.85-24.75ZM45.6-23.3L45.6-23.3Q44.15-23.3 43.07-22.48 42-21.65 41.37-19.58 40.75-17.5 40.65-13.75L40.65-13.75 49.6-13.75Q50.15-18.8 49.2-21.05 48.25-23.3 45.6-23.3ZM70.75 0.7L70.75 0.7Q67.35 0.7 64.6-0.78 61.85-2.25 60.27-5.08 58.7-7.9 58.7-11.95L58.7-11.95Q58.7-16 60.45-18.85 62.2-21.7 65.12-23.23 68.05-24.75 71.55-24.75L71.55-24.75Q74.4-24.75 76.4-23.8 78.4-22.85 79.45-21.38 80.5-19.9 80.5-18.25L80.5-18.25Q80.5-16.85 79.67-16.1 78.85-15.35 77.55-15.35L77.55-15.35Q76.15-15.35 75.27-16.35 74.4-17.35 74.25-18.9L74.25-18.9Q74.2-19.9 74.27-20.6 74.35-21.3 74.25-21.95L74.25-21.95Q74.05-22.8 73.57-23.1 73.1-23.4 72.25-23.4L72.25-23.4Q69.1-23.4 67.42-20.88 65.75-18.35 65.75-12.7L65.75-12.7Q65.75-7.85 67.6-5.25 69.45-2.65 73.35-2.65L73.35-2.65Q75.65-2.65 77.15-3.53 78.65-4.4 79.9-6.05L79.9-6.05 80.7-5.45Q79.45-2.45 76.87-0.88 74.3 0.7 70.75 0.7ZM95.54 0.7L95.54 0.7Q91.84 0.7 89.07-0.85 86.29-2.4 84.77-5.25 83.24-8.1 83.24-12.05L83.24-12.05Q83.24-16 84.87-18.85 86.49-21.7 89.27-23.23 92.04-24.75 95.54-24.75L95.54-24.75Q99.04-24.75 101.82-23.23 104.59-21.7 106.22-18.88 107.84-16.05 107.84-12.05L107.84-12.05Q107.84-8.1 106.32-5.23 104.79-2.35 102.04-0.83 99.29 0.7 95.54 0.7ZM95.54-0.7L95.54-0.7Q97.34-0.7 98.47-1.68 99.59-2.65 100.09-5.1 100.59-7.55 100.59-11.95L100.59-11.95Q100.59-16.4 100.09-18.88 99.59-21.35 98.47-22.33 97.34-23.3 95.54-23.3L95.54-23.3Q93.74-23.3 92.64-22.33 91.54-21.35 91.02-18.88 90.49-16.4 90.49-11.95L90.49-11.95Q90.49-7.55 91.02-5.1 91.54-2.65 92.64-1.68 93.74-0.7 95.54-0.7ZM122.64 0L110.14 0 110.14-0.95 110.89-1.2Q111.89-1.45 112.27-2.05 112.64-2.65 112.64-3.65L112.64-3.65 112.64-18.3Q112.59-19.4 112.24-19.98 111.89-20.55 110.89-20.75L110.89-20.75 110.14-20.95 110.14-21.85 118.29-24.75 118.89-24.2 119.34-19.8 119.34-19.45Q120.09-20.85 121.24-22.05 122.39-23.25 123.74-24 125.09-24.75 126.44-24.75L126.44-24.75Q128.34-24.75 129.29-23.75 130.24-22.75 130.24-21.2L130.24-21.2Q130.24-19.5 129.29-18.63 128.34-17.75 126.99-17.75L126.99-17.75Q124.99-17.75 123.54-19.55L123.54-19.55 123.44-19.65Q122.94-20.25 122.31-20.33 121.69-20.4 121.09-19.7L121.09-19.7Q120.59-19.2 120.17-18.53 119.74-17.85 119.39-16.95L119.39-16.95 119.39-3.85Q119.39-2.9 119.79-2.27 120.19-1.65 121.14-1.4L121.14-1.4 122.64-0.95 122.64 0ZM147.69 0.85L147.69 0.85Q143.94 0.85 141.06-0.5 138.19-1.85 136.56-4.78 134.94-7.7 134.94-12.5L134.94-12.5 134.94-17.9Q134.94-20.7 134.94-23.55 134.94-26.4 134.89-29.3L134.89-29.3Q134.89-31.25 133.04-31.75L133.04-31.75 131.94-32 131.94-33.05 145.44-33.05 145.44-32 144.04-31.7Q142.14-31.25 142.14-29.2L142.14-29.2Q142.09-26.4 142.09-23.58 142.09-20.75 142.09-17.9L142.09-17.9 142.09-11.55Q142.09-6.7 144.06-4.55 146.04-2.4 149.69-2.4L149.69-2.4Q153.54-2.4 155.71-4.73 157.89-7.05 157.89-11.65L157.89-11.65 157.89-29.05Q157.89-30.05 157.49-30.8 157.09-31.55 156.09-31.75L156.09-31.75 154.89-32 154.89-33.05 162.59-33.05 162.59-32 161.19-31.7Q160.24-31.5 159.89-30.8 159.54-30.1 159.54-29.1L159.54-29.1 159.54-11.95Q159.54-5.75 156.29-2.45 153.04 0.85 147.69 0.85ZM173.34 0.7L173.34 0.7Q170.94 0.7 169.01 0.18 167.09-0.35 165.34-1.3L165.34-1.3 165.34-7.2 166.69-7.2 168.19-4.35Q169.14-2.5 170.36-1.6 171.59-0.7 173.49-0.7L173.49-0.7Q175.84-0.7 177.24-1.73 178.64-2.75 178.64-4.5L178.64-4.5Q178.64-6.1 177.59-7.1 176.54-8.1 173.84-8.95L173.84-8.95 171.64-9.65Q168.69-10.55 166.96-12.38 165.24-14.2 165.24-16.95L165.24-16.95Q165.24-19.1 166.39-20.88 167.54-22.65 169.74-23.7 171.94-24.75 175.09-24.75L175.09-24.75Q177.14-24.75 178.86-24.28 180.59-23.8 182.24-22.95L182.24-22.95 181.94-17.6 180.64-17.6 179.09-20.45Q178.29-22.05 177.46-22.68 176.64-23.3 174.94-23.3L174.94-23.3Q173.14-23.3 171.76-22.38 170.39-21.45 170.39-19.8L170.39-19.8Q170.39-18.25 171.54-17.28 172.69-16.3 175.24-15.45L175.24-15.45 177.39-14.8Q181.04-13.65 182.59-11.75 184.14-9.85 184.14-7.2L184.14-7.2Q184.14-3.65 181.31-1.48 178.49 0.7 173.34 0.7Z" opacity="1" transform="matrix(1,0,0,1,0,0)" fill="black" class="wordmark-text-0" id="SvgjsPath1000" stroke-width="5" stroke="black" stroke-linejoin="round"></path></svg></g></svg></g></svg></g></svg></g></svg></g></svg></g></svg></g></mask><g mask="url(#04fe1049-e69b-4cba-930a-8e1abea779ce)"><g><path d="M176.817 247.2h-91.625v-7.854l7.48-2.617c7.978-2.493 11.967-8.726 11.967-18.699v0c0.249-14.211 0.374-28.747 0.374-43.606 0-14.81 0-29.943 0-45.401v0-13.09c0-14.461 0-28.921 0-43.381 0-14.461-0.125-28.921-0.374-43.382v0c0-10.222-3.864-16.58-11.593-19.073v0l-7.854-2.243v-7.854h98.357c26.179 0 48.742 4.862 67.69 14.585 18.948 9.723 33.533 23.735 43.756 42.035 10.222 18.35 15.333 40.489 15.333 66.419v0c0 26.428-5.535 48.867-16.605 67.316-11.12 18.45-26.702 32.536-46.747 42.26-20.095 9.723-43.481 14.585-70.159 14.585zM158.866 236.355v0h19.073c17.702 0 32.112-3.49 43.232-10.472 11.07-6.981 19.223-18.774 24.458-35.378 5.236-16.555 7.854-38.919 7.854-67.092v0c0-28.173-2.618-50.487-7.854-66.942-5.236-16.455-13.264-28.173-24.084-35.154-10.87-6.981-24.907-10.471-42.11-10.472v0h-20.569c-0.249 17.203-0.374 34.581-0.374 52.133 0 17.602 0 35.254 0 52.955v0 12.716c0 18.699 0 36.949 0 54.75 0 17.851 0.125 35.503 0.374 52.956z" fill="#000000" fill-rule="nonzero" stroke="none" stroke-width="1" stroke-linecap="butt" stroke-linejoin="miter" stroke-miterlimit="10" stroke-dasharray="" stroke-dashoffset="0" font-family="none" font-weight="none" font-size="none" text-anchor="none" style="mix-blend-mode: normal" data-fill-palette-color="tertiary"></path></g></g><g transform="matrix(1,0,0,1,0,82.68051063829786)"><svg viewBox="0 0 395.52 81.83897872340427" height="81.83897872340427" width="395.52"><g><svg viewBox="0 0 395.52 81.83897872340427" height="81.83897872340427" width="395.52"><g><svg viewBox="0 0 395.52 81.83897872340427" height="81.83897872340427" width="395.52"><g><svg viewBox="0 0 395.52 81.83897872340427" height="81.83897872340427" width="395.52"><g id="textblocktransform"><svg viewBox="0 0 395.52 81.83897872340427" height="81.83897872340427" width="395.52" id="textblock"><g><svg viewBox="0 0 395.52 81.83897872340427" height="81.83897872340427" width="395.52"><g transform="matrix(1,0,0,1,0,0)"><svg width="395.52" viewBox="-1.85 -36.05 188.98999999999998 39.9" height="81.83897872340427" data-palette-color="#484a47"><path d="M13.4 0L1.15 0 1.15-1.05 2.15-1.4Q3.75-1.9 3.75-3.9L3.75-3.9Q3.8-6.75 3.8-9.73 3.8-12.7 3.8-15.8L3.8-15.8 3.8-17.55Q3.8-20.45 3.8-23.35 3.8-26.25 3.75-29.15L3.75-29.15Q3.75-31.2 2.2-31.7L2.2-31.7 1.15-32 1.15-33.05 14.3-33.05Q19.55-33.05 23.35-31.1 27.15-29.15 29.2-25.48 31.25-21.8 31.25-16.6L31.25-16.6Q31.25-11.3 29.03-7.6 26.8-3.9 22.78-1.95 18.75 0 13.4 0L13.4 0ZM11-1.45L11-1.45 13.55-1.45Q17.1-1.45 19.33-2.85 21.55-4.25 22.6-7.58 23.65-10.9 23.65-16.55L23.65-16.55Q23.65-22.2 22.6-25.5 21.55-28.8 19.38-30.2 17.2-31.6 13.75-31.6L13.75-31.6 11-31.6Q10.95-28.15 10.95-24.63 10.95-21.1 10.95-17.55L10.95-17.55 10.95-15.85Q10.95-12.1 10.95-8.53 10.95-4.95 11-1.45ZM45.85-24.75L45.85-24.75Q49-24.75 51.25-23.45 53.5-22.15 54.72-19.88 55.95-17.6 55.95-14.65L55.95-14.65Q55.95-14 55.9-13.43 55.85-12.85 55.7-12.35L55.7-12.35 40.65-12.35Q40.7-7.2 42.57-4.95 44.45-2.7 48.05-2.7L48.05-2.7Q50.55-2.7 52.1-3.53 53.65-4.35 54.95-5.85L54.95-5.85 55.75-5.1Q54.25-2.35 51.67-0.83 49.1 0.7 45.55 0.7L45.55 0.7Q42 0.7 39.3-0.8 36.6-2.3 35.07-5.13 33.55-7.95 33.55-11.9L33.55-11.9Q33.55-16 35.32-18.85 37.1-21.7 39.92-23.23 42.75-24.75 45.85-24.75ZM45.6-23.3L45.6-23.3Q44.15-23.3 43.07-22.48 42-21.65 41.37-19.58 40.75-17.5 40.65-13.75L40.65-13.75 49.6-13.75Q50.15-18.8 49.2-21.05 48.25-23.3 45.6-23.3ZM70.75 0.7L70.75 0.7Q67.35 0.7 64.6-0.78 61.85-2.25 60.27-5.08 58.7-7.9 58.7-11.95L58.7-11.95Q58.7-16 60.45-18.85 62.2-21.7 65.12-23.23 68.05-24.75 71.55-24.75L71.55-24.75Q74.4-24.75 76.4-23.8 78.4-22.85 79.45-21.38 80.5-19.9 80.5-18.25L80.5-18.25Q80.5-16.85 79.67-16.1 78.85-15.35 77.55-15.35L77.55-15.35Q76.15-15.35 75.27-16.35 74.4-17.35 74.25-18.9L74.25-18.9Q74.2-19.9 74.27-20.6 74.35-21.3 74.25-21.95L74.25-21.95Q74.05-22.8 73.57-23.1 73.1-23.4 72.25-23.4L72.25-23.4Q69.1-23.4 67.42-20.88 65.75-18.35 65.75-12.7L65.75-12.7Q65.75-7.85 67.6-5.25 69.45-2.65 73.35-2.65L73.35-2.65Q75.65-2.65 77.15-3.53 78.65-4.4 79.9-6.05L79.9-6.05 80.7-5.45Q79.45-2.45 76.87-0.88 74.3 0.7 70.75 0.7ZM95.54 0.7L95.54 0.7Q91.84 0.7 89.07-0.85 86.29-2.4 84.77-5.25 83.24-8.1 83.24-12.05L83.24-12.05Q83.24-16 84.87-18.85 86.49-21.7 89.27-23.23 92.04-24.75 95.54-24.75L95.54-24.75Q99.04-24.75 101.82-23.23 104.59-21.7 106.22-18.88 107.84-16.05 107.84-12.05L107.84-12.05Q107.84-8.1 106.32-5.23 104.79-2.35 102.04-0.83 99.29 0.7 95.54 0.7ZM95.54-0.7L95.54-0.7Q97.34-0.7 98.47-1.68 99.59-2.65 100.09-5.1 100.59-7.55 100.59-11.95L100.59-11.95Q100.59-16.4 100.09-18.88 99.59-21.35 98.47-22.33 97.34-23.3 95.54-23.3L95.54-23.3Q93.74-23.3 92.64-22.33 91.54-21.35 91.02-18.88 90.49-16.4 90.49-11.95L90.49-11.95Q90.49-7.55 91.02-5.1 91.54-2.65 92.64-1.68 93.74-0.7 95.54-0.7ZM122.64 0L110.14 0 110.14-0.95 110.89-1.2Q111.89-1.45 112.27-2.05 112.64-2.65 112.64-3.65L112.64-3.65 112.64-18.3Q112.59-19.4 112.24-19.98 111.89-20.55 110.89-20.75L110.89-20.75 110.14-20.95 110.14-21.85 118.29-24.75 118.89-24.2 119.34-19.8 119.34-19.45Q120.09-20.85 121.24-22.05 122.39-23.25 123.74-24 125.09-24.75 126.44-24.75L126.44-24.75Q128.34-24.75 129.29-23.75 130.24-22.75 130.24-21.2L130.24-21.2Q130.24-19.5 129.29-18.63 128.34-17.75 126.99-17.75L126.99-17.75Q124.99-17.75 123.54-19.55L123.54-19.55 123.44-19.65Q122.94-20.25 122.31-20.33 121.69-20.4 121.09-19.7L121.09-19.7Q120.59-19.2 120.17-18.53 119.74-17.85 119.39-16.95L119.39-16.95 119.39-3.85Q119.39-2.9 119.79-2.27 120.19-1.65 121.14-1.4L121.14-1.4 122.64-0.95 122.64 0ZM147.69 0.85L147.69 0.85Q143.94 0.85 141.06-0.5 138.19-1.85 136.56-4.78 134.94-7.7 134.94-12.5L134.94-12.5 134.94-17.9Q134.94-20.7 134.94-23.55 134.94-26.4 134.89-29.3L134.89-29.3Q134.89-31.25 133.04-31.75L133.04-31.75 131.94-32 131.94-33.05 145.44-33.05 145.44-32 144.04-31.7Q142.14-31.25 142.14-29.2L142.14-29.2Q142.09-26.4 142.09-23.58 142.09-20.75 142.09-17.9L142.09-17.9 142.09-11.55Q142.09-6.7 144.06-4.55 146.04-2.4 149.69-2.4L149.69-2.4Q153.54-2.4 155.71-4.73 157.89-7.05 157.89-11.65L157.89-11.65 157.89-29.05Q157.89-30.05 157.49-30.8 157.09-31.55 156.09-31.75L156.09-31.75 154.89-32 154.89-33.05 162.59-33.05 162.59-32 161.19-31.7Q160.24-31.5 159.89-30.8 159.54-30.1 159.54-29.1L159.54-29.1 159.54-11.95Q159.54-5.75 156.29-2.45 153.04 0.85 147.69 0.85ZM173.34 0.7L173.34 0.7Q170.94 0.7 169.01 0.18 167.09-0.35 165.34-1.3L165.34-1.3 165.34-7.2 166.69-7.2 168.19-4.35Q169.14-2.5 170.36-1.6 171.59-0.7 173.49-0.7L173.49-0.7Q175.84-0.7 177.24-1.73 178.64-2.75 178.64-4.5L178.64-4.5Q178.64-6.1 177.59-7.1 176.54-8.1 173.84-8.95L173.84-8.95 171.64-9.65Q168.69-10.55 166.96-12.38 165.24-14.2 165.24-16.95L165.24-16.95Q165.24-19.1 166.39-20.88 167.54-22.65 169.74-23.7 171.94-24.75 175.09-24.75L175.09-24.75Q177.14-24.75 178.86-24.28 180.59-23.8 182.24-22.95L182.24-22.95 181.94-17.6 180.64-17.6 179.09-20.45Q178.29-22.05 177.46-22.68 176.64-23.3 174.94-23.3L174.94-23.3Q173.14-23.3 171.76-22.38 170.39-21.45 170.39-19.8L170.39-19.8Q170.39-18.25 171.54-17.28 172.69-16.3 175.24-15.45L175.24-15.45 177.39-14.8Q181.04-13.65 182.59-11.75 184.14-9.85 184.14-7.2L184.14-7.2Q184.14-3.65 181.31-1.48 178.49 0.7 173.34 0.7Z" opacity="1" transform="matrix(1,0,0,1,0,0)" fill="#000000" class="wordmark-text-0" data-fill-palette-color="primary" id="text-0"></path></svg></g></svg></g></svg></g></svg></g></svg></g></svg></g></svg></g></svg></g><defs></defs></svg><rect width="395.52" height="247.2" fill="none" stroke="none" visibility="hidden"></rect></g></svg></g></svg>